<svg width="26" height="26" viewBox="0 0 26 26" fill="none" xmlns="http://www.w3.org/2000/svg">
<path d="M8.13474 17.05C8.13474 17.05 8.66518 13.5863 12.9087 13.5863C17.1522 13.5863 17.6826 17.05 17.6826 17.05M7.3513 1H19.7893C22.0124 1 21.9834 1 22.8326 1.43186C23.5795 1.81173 24.1868 2.41787 24.5673 3.16342C25 4.01098 25 5.12051 25 7.33957V14.4716C25 16.6906 25 17.8002 24.5673 18.6477C24.1868 19.3933 23.5795 19.9994 22.8326 20.3793C21.9834 20.8112 22.0124 20.8112 19.7893 20.8112C19.3057 20.8112 19.0639 20.8112 18.8339 20.852C18.4562 20.9191 18.0977 21.0673 17.7832 21.2864C17.5916 21.4199 17.4206 21.5906 17.0787 21.9319L15.9027 23.1056C14.8547 24.1517 14.3307 24.6747 13.7265 24.8707C13.1949 25.0431 12.6224 25.0431 12.0909 24.8707C11.4867 24.6747 10.9627 24.1517 9.91465 23.1056L7.80306 20.9979C7.68324 20.8783 7.52074 20.8112 7.3513 20.8112C5.12813 20.8112 4.01655 20.8112 3.16742 20.3793C2.4205 19.9994 1.81323 19.3933 1.43266 18.6477C1 17.8002 1 16.6906 1 14.4716V7.33957C1 5.12051 1 4.01098 1.43266 3.16342C1.81323 2.41787 2.4205 1.81173 3.16742 1.43186C4.01655 1 5.12813 1 7.3513 1ZM15.594 7.60765C15.594 9.08798 14.3918 10.288 12.9087 10.288C11.4256 10.288 10.2234 9.08798 10.2234 7.60765C10.2234 6.12732 11.4256 4.92727 12.9087 4.92727C14.3918 4.92727 15.594 6.12732 15.594 7.60765Z" stroke="black" stroke-width="2" stroke-linecap="round" stroke-linejoin="round"/>
</svg>
