<svg width="104" height="53" viewBox="0 0 104 53" fill="none" xmlns="http://www.w3.org/2000/svg">
<path fill-rule="evenodd" clip-rule="evenodd" d="M18.9166 0.282261H0.496452C0.426776 0.28183 0.357798 0.296126 0.29406 0.324206C0.230322 0.352287 0.17327 0.393516 0.126658 0.445179C0.0800458 0.496843 0.0449321 0.557768 0.0236281 0.623945C0.00232406 0.690122 -0.00468708 0.76005 0.00305622 0.829125V4.38374C0.00305622 4.51428 0.0550389 4.63947 0.147569 4.73177C0.240098 4.82407 0.365596 4.87592 0.496452 4.87592H6.69132V27.6802C6.69132 27.8107 6.7433 27.9359 6.83583 28.0282C6.92836 28.1205 7.05385 28.1723 7.18471 28.1723H12.338C12.4688 28.1723 12.5943 28.1205 12.6868 28.0282C12.7794 27.9359 12.8314 27.8107 12.8314 27.6802V4.82124H19.0262C19.1571 4.82124 19.2826 4.76938 19.3751 4.67708C19.4676 4.58478 19.5196 4.45959 19.5196 4.32906V0.829125C19.5059 0.679243 19.4364 0.539935 19.3247 0.438695C19.2131 0.337454 19.0675 0.281637 18.9166 0.282261Z" fill="#002554"/>
<path fill-rule="evenodd" clip-rule="evenodd" d="M41.5032 0.282261H23.083C23.0134 0.28183 22.9444 0.296126 22.8806 0.324206C22.8169 0.352287 22.7599 0.393516 22.7132 0.445179C22.6666 0.496843 22.6315 0.557768 22.6102 0.623945C22.5889 0.690122 22.5819 0.76005 22.5896 0.829125V27.6255C22.5896 27.756 22.6416 27.8812 22.7341 27.9735C22.8267 28.0658 22.9522 28.1177 23.083 28.1177H41.5032C41.5724 28.1254 41.6425 28.1184 41.7088 28.0971C41.7752 28.0759 41.8363 28.0409 41.8881 27.9944C41.9398 27.9479 41.9812 27.891 42.0093 27.8274C42.0375 27.7638 42.0518 27.695 42.0514 27.6255V24.1256C42.0602 24.0516 42.0521 23.9767 42.0276 23.9063C42.0032 23.836 41.9631 23.772 41.9103 23.7194C41.8575 23.6668 41.7935 23.6267 41.7229 23.6024C41.6524 23.578 41.5773 23.5699 41.5032 23.5787H28.7845V16.196H38.488C38.5621 16.2048 38.6372 16.1967 38.7077 16.1723C38.7783 16.148 38.8423 16.108 38.8951 16.0553C38.9479 16.0027 38.988 15.9388 39.0124 15.8684C39.0369 15.7981 39.045 15.7231 39.0362 15.6492V12.0945C39.0366 12.025 39.0223 11.9562 38.9941 11.8926C38.966 11.8291 38.9246 11.7721 38.8729 11.7257C38.8211 11.6792 38.76 11.6441 38.6936 11.6229C38.6273 11.6016 38.5572 11.5946 38.488 11.6024H28.7845V4.82124H41.5032C41.5724 4.82896 41.6425 4.82197 41.7088 4.80071C41.7752 4.77946 41.8363 4.74444 41.8881 4.69794C41.9398 4.65144 41.9812 4.59453 42.0093 4.53095C42.0375 4.46737 42.0518 4.39856 42.0514 4.32906V0.829125C42.1062 0.501006 41.8321 0.282261 41.5032 0.282261Z" fill="#002554"/>
<path fill-rule="evenodd" clip-rule="evenodd" d="M85.5251 0.282261H67.1049C67.0353 0.28183 66.9663 0.296126 66.9025 0.324206C66.8388 0.352287 66.7817 0.393516 66.7351 0.445179C66.6885 0.496843 66.6534 0.557768 66.6321 0.623945C66.6108 0.690122 66.6038 0.76005 66.6115 0.829125V27.6255C66.6115 27.756 66.6635 27.8812 66.7561 27.9735C66.8486 28.0658 66.9741 28.1177 67.1049 28.1177H85.5251C85.6614 28.1183 85.7932 28.0683 85.8945 27.9773C85.9959 27.8863 86.0596 27.7608 86.0733 27.6255V24.1256C86.0733 23.9805 86.0155 23.8414 85.9127 23.7389C85.8099 23.6363 85.6704 23.5787 85.5251 23.5787H72.7516V16.196H82.5099C82.584 16.2048 82.6591 16.1967 82.7297 16.1723C82.8002 16.148 82.8642 16.108 82.917 16.0553C82.9698 16.0027 83.0099 15.9388 83.0343 15.8684C83.0588 15.7981 83.0669 15.7231 83.0581 15.6492V12.0945C83.0585 12.025 83.0442 11.9562 83.016 11.8926C82.9879 11.8291 82.9465 11.7721 82.8948 11.7257C82.843 11.6792 82.7819 11.6441 82.7155 11.6229C82.6492 11.6016 82.5791 11.5946 82.5099 11.6024H72.7516V4.82124H85.5251C85.6614 4.82192 85.7932 4.77187 85.8945 4.68086C85.9959 4.58985 86.0596 4.46442 86.0733 4.32906V0.829125C86.1281 0.501006 85.7992 0.282261 85.5251 0.282261Z" fill="#002554"/>
<path fill-rule="evenodd" clip-rule="evenodd" d="M103.452 15.7585H91.994C91.8632 15.7585 91.7377 15.8104 91.6451 15.9027C91.5526 15.995 91.5006 16.1202 91.5006 16.2507V27.6255C91.5006 27.756 91.5526 27.8812 91.6451 27.9735C91.7377 28.0658 91.8632 28.1177 91.994 28.1177H103.452C103.583 28.1177 103.708 28.0658 103.801 27.9735C103.893 27.8812 103.945 27.756 103.945 27.6255V16.3054C103.946 16.1693 103.896 16.0379 103.804 15.9368C103.713 15.8357 103.587 15.7721 103.452 15.7585Z" fill="#002554"/>
<path fill-rule="evenodd" clip-rule="evenodd" d="M102.629 11.3836H92.8164V1.59474H102.629V11.3836ZM103.452 0.282261H91.994C91.9244 0.28183 91.8554 0.296126 91.7916 0.324206C91.7279 0.352287 91.6709 0.393516 91.6242 0.445179C91.5776 0.496843 91.5425 0.557768 91.5212 0.623945C91.4999 0.690122 91.4929 0.76005 91.5006 0.829125V12.1492C91.4929 12.2183 91.4999 12.2882 91.5212 12.3544C91.5425 12.4206 91.5776 12.4815 91.6242 12.5332C91.6709 12.5848 91.7279 12.6261 91.7916 12.6541C91.8554 12.6822 91.9244 12.6965 91.994 12.6961H103.452C103.521 12.6965 103.59 12.6822 103.654 12.6541C103.718 12.6261 103.775 12.5848 103.822 12.5332C103.868 12.4815 103.903 12.4206 103.925 12.3544C103.946 12.2882 103.953 12.2183 103.945 12.1492V0.829125C103.953 0.76005 103.946 0.690122 103.925 0.623945C103.903 0.557768 103.868 0.496843 103.822 0.445179C103.775 0.393516 103.718 0.352287 103.654 0.324206C103.59 0.296126 103.521 0.28183 103.452 0.282261Z" fill="#002554"/>
<path fill-rule="evenodd" clip-rule="evenodd" d="M52.2482 5.47747C53.3348 4.86384 54.563 4.54341 55.8116 4.5478C57.9937 4.57767 60.1577 4.94668 62.2258 5.64153C62.3629 5.66295 62.5031 5.63657 62.623 5.56684C62.7428 5.4971 62.8349 5.38829 62.8837 5.25873L63.4319 2.19629C63.4655 2.10312 63.4793 2.00396 63.4723 1.90517C63.4653 1.80638 63.4377 1.71014 63.3913 1.62261C63.3448 1.53509 63.2805 1.45821 63.2026 1.39691C63.1246 1.3356 63.0346 1.29122 62.9385 1.26662C60.6368 0.503962 58.2359 0.0802405 55.8116 0.00882827C54.2069 -0.0415687 52.6026 0.12398 51.0421 0.501006C47.5336 1.37599 45.3407 4.00094 44.5184 8.10242C44.1786 10.1262 44.0135 12.1754 44.025 14.2273C44.0182 16.2609 44.1833 18.2915 44.5184 20.2975C45.3407 24.399 47.5336 27.0239 51.0421 27.8989C52.6026 28.2759 54.2069 28.4415 55.8116 28.3911C58.2328 28.3335 60.6331 27.9283 62.9385 27.188C63.0367 27.1571 63.1276 27.1069 63.2059 27.0403C63.2842 26.9737 63.3483 26.892 63.3944 26.8001C63.4404 26.7083 63.4674 26.6082 63.4739 26.5057C63.4803 26.4032 63.466 26.3005 63.4319 26.2036L62.774 23.2506C62.7192 22.9225 62.4451 22.8131 62.1162 22.8678C60.0647 23.5537 57.9201 23.9225 55.7568 23.9615C54.4877 23.9919 53.2351 23.67 52.1386 23.0318C50.8229 22.2115 50.2746 20.8991 49.8909 19.1491C49.6352 17.5393 49.5069 15.9119 49.5071 14.282C49.495 12.7264 49.605 11.1722 49.8361 9.63364C50.165 7.7743 50.9325 6.35246 52.2482 5.47747Z" fill="#002554"/>
<path fill-rule="evenodd" clip-rule="evenodd" d="M6.36238 39.3831C4.3888 39.3831 3.07308 39.8753 3.07308 42.1721V44.9064C3.07308 47.2579 4.3888 47.6954 6.36238 47.6954C7.40919 47.6784 8.45345 47.587 9.48723 47.422V48.6251C8.41902 48.8093 7.3368 48.9008 6.25274 48.8985C2.47004 48.8985 1.70253 47.2032 1.70253 44.9064V42.4455C1.70253 39.9846 2.25075 38.2347 6.47203 38.2347C7.56846 38.2347 8.71972 38.4534 9.48723 38.5081V39.7659C8.4681 39.4961 7.41666 39.3673 6.36238 39.3831Z" fill="#002554"/>
<path d="M13.4892 34.2972H12.1187V48.636H13.4892V34.2972Z" fill="#002554"/>
<path fill-rule="evenodd" clip-rule="evenodd" d="M20.6709 39.3831C18.478 39.3831 17.3816 40.0393 17.3816 42.2268V44.797C17.3816 47.0939 18.6973 47.6407 20.6709 47.6407C22.6445 47.6407 24.015 46.9845 24.015 44.797V42.2268C24.015 39.9846 22.8089 39.3831 20.6709 39.3831ZM20.6709 48.8438C16.9978 48.8438 15.9014 47.0939 15.9014 44.797V42.2268C15.9014 39.9846 16.7785 38.1253 20.6709 38.1253C24.5632 38.1253 25.4404 39.9846 25.4404 42.2268V44.797C25.4404 47.0939 24.4536 48.8438 20.6709 48.8438Z" fill="#002554"/>
<path fill-rule="evenodd" clip-rule="evenodd" d="M27.3043 47.0939C28.2919 47.4382 29.3283 47.6228 30.3743 47.6407C32.0738 47.6407 33.2251 47.422 33.2251 46.1095C33.2251 44.797 32.5672 44.8517 31.7449 44.4142L29.6616 43.3752C28.1815 42.7189 27.5784 42.0627 27.5784 40.6409C27.5784 39.219 28.8393 38.1253 31.7449 38.1253C32.5757 38.1573 33.4017 38.2672 34.2119 38.4534V39.6565C33.404 39.4644 32.5754 39.3726 31.7449 39.3831C29.8809 39.3831 29.0586 39.8206 29.0586 40.7502C29.0586 41.6799 29.4972 41.844 30.2099 42.2268L32.5124 43.3205C33.8829 43.9767 34.7053 44.797 34.7053 46.1642C34.7053 47.5314 33.1702 48.8985 30.4292 48.8985C29.3852 48.9103 28.3469 48.7438 27.3591 48.4063V47.0939H27.3043Z" fill="#002554"/>
<path fill-rule="evenodd" clip-rule="evenodd" d="M44.025 42.7189V42.0627C44.025 40.0393 42.9833 39.3831 41.229 39.3831C39.4747 39.3831 38.159 40.094 37.9946 42.7189H44.025ZM37.9946 43.758C37.9946 46.7657 38.8717 47.6407 41.7224 47.6407C42.6585 47.6356 43.5929 47.5624 44.5184 47.422V48.5704C43.5947 48.732 42.66 48.8234 41.7224 48.8438C37.556 48.8438 36.624 47.2032 36.624 43.5392C36.624 39.0003 38.3783 38.1253 41.2839 38.1253C44.1894 38.1253 45.3955 39.0003 45.3955 42.2268C45.3955 42.6643 45.3955 43.1564 45.3407 43.758H37.9946Z" fill="#002554"/>
<path fill-rule="evenodd" clip-rule="evenodd" d="M56.5791 48.7891H55.2634C51.8097 48.7891 51.9193 46.1095 51.9193 45.4533V39.4378H50.2746V38.2893H51.9193L52.2482 35.3363H53.3447V38.2893H56.4695V39.4378H53.3447V45.7814C53.3447 46.6564 53.5639 47.6407 55.4827 47.6407C55.8515 47.6563 56.2207 47.6195 56.5791 47.5314V48.7891Z" fill="#002554"/>
<path fill-rule="evenodd" clip-rule="evenodd" d="M62.8837 39.3831C60.6908 39.3831 59.5395 40.0393 59.5395 42.2268V44.797C59.5395 47.0939 60.9101 47.6407 62.8837 47.6407C64.8572 47.6407 66.173 46.9845 66.173 44.797V42.2268C66.173 39.9846 64.9669 39.3831 62.8837 39.3831ZM62.8837 48.8438C59.2106 48.8438 58.1142 47.0939 58.1142 44.797V42.2268C58.1142 39.9846 58.9913 38.1253 62.8837 38.1253C66.776 38.1253 67.6532 39.9846 67.6532 42.2268V44.797C67.5435 47.0939 66.5567 48.8438 62.8837 48.8438Z" fill="#002554"/>
<path fill-rule="evenodd" clip-rule="evenodd" d="M72.7516 51.6875C75.383 51.5235 76.4246 50.9766 77.1921 49.0626L72.916 38.344H74.5059L77.9048 47.422L81.3038 38.344H82.8936L79.0013 48.3517C77.9048 51.4141 77.4114 52.7266 72.8612 53V51.6875H72.7516Z" fill="#002554"/>
<path fill-rule="evenodd" clip-rule="evenodd" d="M88.321 39.3831C86.1281 39.3831 85.0317 40.0393 85.0317 42.2268V44.797C85.0317 47.0939 86.3474 47.6407 88.321 47.6407C90.2946 47.6407 91.6103 46.9845 91.6103 44.797V42.2268C91.6103 39.9846 90.459 39.3831 88.321 39.3831ZM88.321 48.8438C84.6479 48.8438 83.5515 47.0939 83.5515 44.797V42.2268C83.5515 39.9846 84.4286 38.1253 88.321 38.1253C92.2133 38.1253 93.0905 39.9846 93.0905 42.2268V44.797C93.0356 47.0939 92.0489 48.8438 88.321 48.8438Z" fill="#002554"/>
<path fill-rule="evenodd" clip-rule="evenodd" d="M96.7635 38.344V44.797C96.7635 46.8751 97.2021 47.6407 99.6691 47.6407C100.67 47.6142 101.664 47.4673 102.629 47.2032V38.344H104V48.6798H103.013L102.849 48.297C101.826 48.6573 100.753 48.8601 99.6691 48.8985C96.4894 48.8985 95.4478 48.0782 95.4478 44.9064V38.344H96.7635Z" fill="#002554"/>
</svg>
